<svg version="1.1" xmlns="http://www.w3.org/2000/svg" xmlns:xlink="http://www.w3.org/1999/xlink" width="297.81101" height="83.07031" viewBox="0,0,297.81101,83.07031"><defs><linearGradient x1="346.23769" y1="138.46484" x2="346.23769" y2="221.53516" gradientUnits="userSpaceOnUse" id="color-1"><stop offset="0" stop-color="#ffffff"/><stop offset="1" stop-color="#f3f3f3"/></linearGradient></defs><g transform="translate(-91.03199,-138.46484)"><g data-paper-data="{&quot;isPaintingLayer&quot;:true}" stroke-linejoin="miter" stroke-miterlimit="10" stroke-dasharray="" stroke-dashoffset="0" style="mix-blend-mode: normal"><path d="M243.28842,178.1066v10.12513h-2.63102v-9.43501c0.05012,-1.15424 -0.13181,-2.30681 -0.53501,-3.3895c-0.08461,-0.19534 -0.1876,-0.38219 -0.3076,-0.55802c-0.56174,-0.81281 -1.50579,-1.21922 -2.83214,-1.21922c-1.12348,0 -2.07826,0.51332 -2.86435,1.53997c-0.78652,1.02708 -1.17979,2.25748 -1.17979,3.69119v9.37059h-2.63168v-9.75575c0.07984,-1.23163 -0.21605,-2.45849 -0.84853,-3.51833c-0.6711,-0.90986 -1.76249,-1.41125 -2.88998,-1.32767c-1.13223,-0.01201 -2.19885,0.53014 -2.85646,1.45189c-0.78925,1.09735 -1.18503,2.42897 -1.12326,3.77926v9.37059h-2.63168v-16.43157h2.63168v2.59947h0.06441c0.99145,-1.88775 2.9716,-3.0459 5.10299,-2.98463c1.12304,0 2.10171,0.31308 2.93599,0.93923c0.82518,0.6122 1.42815,1.47685 1.71743,2.46276c0.97932,-2.11893 3.12224,-3.45513 5.45594,-3.40199c3.61538,0 5.42307,2.23053 5.42307,6.69159zM167.24445,178.18679v10.04494h-2.63168v-9.37059c0,-3.48744 -1.2729,-5.23115 -3.8187,-5.23115c-1.25726,-0.02654 -2.45852,0.51944 -3.26528,1.4841c-0.86145,0.9894 -1.29218,2.23842 -1.29218,3.74705v9.37059h-2.63168v-16.43157h2.63168v2.7283h0.06441c1.24091,-2.07564 3.03809,-3.11345 5.39153,-3.11345c1.57136,-0.09743 3.09761,0.54698 4.12367,1.74109c0.94099,1.28246 1.43804,2.83683 1.41574,4.42732c0.00844,0.20101 0.01261,0.40218 0.01249,0.60337zM207.03973,178.18679v10.04494h-2.63168v-9.37059c0,-3.48744 -1.2729,-5.23115 -3.8187,-5.23115c-1.25749,-0.02674 -2.45903,0.51926 -3.26594,1.4841c-0.86101,0.9894 -1.29152,2.23842 -1.29152,3.74705v9.37059h-2.63168v-16.43157h2.63168v2.7283h0.06441c1.24091,-2.07564 3.03809,-3.11345 5.39153,-3.11345c1.57136,-0.09743 3.09761,0.54698 4.12367,1.74109c0.94099,1.28246 1.43804,2.83683 1.41574,4.42732c0.00844,0.20101 0.01261,0.40218 0.01249,0.60337zM181.50968,165.22163l8.85793,23.01011h-2.98463l-2.4391,-6.45038h-9.75641l-2.2945,6.45038h-3.0004l8.82507,-23.01011zM119.79534,185.85705h-0.06441v9.93255h-2.63168v-23.98943h2.63168v2.88867h0.06441c1.29437,-2.18255 3.18772,-3.27383 5.68006,-3.27383c1.90946,-0.09396 3.74995,0.72504 4.95839,2.20643c1.22065,1.63778 1.84827,3.64187 1.77987,5.68335c0.00102,0.07668 0.00146,0.15336 0.00131,0.23004c0.09172,2.16132 -0.48305,4.29861 -1.64644,6.1224c-0.11347,0.16466 -0.23318,0.32492 -0.35887,0.48046c-1.33731,1.6528 -3.16669,2.47919 -5.48814,2.47919c-2.02517,0.05809 -3.91813,-1.00243 -4.92618,-2.75985zM260.02496,177.5453v10.68643h-2.63168v-2.56727h-0.06375c-0.97947,1.87203 -2.94327,3.019 -5.05501,2.95242c-1.40117,0.08257 -2.77947,-0.38346 -3.84301,-1.29941c-0.93815,-0.89629 -1.44408,-2.1537 -1.38814,-3.44997c0,-3.07029 1.80791,-4.85695 5.42373,-5.35998l4.92618,-0.68947c0.10086,-1.17749 -0.24525,-2.34979 -0.96946,-3.28368c-0.63851,-0.63384 -1.51833,-0.96317 -2.4161,-0.90439c-1.97324,-0.00233 -3.87927,0.7167 -5.35932,2.02174v-2.69609c1.67297,-1.04331 3.61284,-1.57851 5.5841,-1.54062c1.62218,-0.12785 3.22102,0.44795 4.3892,1.58072c0.9355,1.02139 1.40326,2.53791 1.40326,4.54957zM149.62587,179.29428v1.37959h-11.602c-0.05938,1.5478 0.46785,3.06095 1.47621,4.23671c1.02289,1.02796 2.43573,1.57071 3.88376,1.49199c1.85041,0 3.55119,-0.60972 5.10233,-1.82916v2.47131c-1.62748,1.08408 -3.55271,1.63323 -5.5072,1.57086c-0.07383,0.00095 -0.14766,0.00139 -0.2215,0.00131c-2.06621,0.10632 -4.07224,-0.71416 -5.47171,-2.23798c-1.28191,-1.56613 -1.97923,-3.52935 -1.97245,-5.55321c-0.01165,-0.24827 -0.01735,-0.49679 -0.01709,-0.74534c0,-2.55675 0.72474,-4.64006 2.17422,-6.24991c1.35211,-1.56661 3.33032,-2.45157 5.39941,-2.41544c1.89574,-0.10857 3.73609,0.66073 4.9906,2.08615c1.17694,1.39077 1.76541,3.32181 1.76541,5.79311zM289.32572,179.29428v1.37959h-11.60134c-0.05938,1.5478 0.46785,3.06095 1.47621,4.23671c1.02273,1.02778 2.4353,1.57052 3.88311,1.49199c1.85085,0 3.55185,-0.60972 5.10299,-1.82916v2.47131c-1.62748,1.08408 -3.55271,1.63323 -5.5072,1.57086c-0.07383,0.00095 -0.14766,0.00139 -0.2215,0.00131c-2.06621,0.10632 -4.07224,-0.71416 -5.47171,-2.23798c-1.28191,-1.56613 -1.97923,-3.52935 -1.97245,-5.55321c-0.01165,-0.24827 -0.01735,-0.49679 -0.01709,-0.74534c0,-2.55675 0.72474,-4.64006 2.17422,-6.24991c1.35211,-1.56661 3.33032,-2.45157 5.39941,-2.41544c1.89574,-0.10857 3.73609,0.66073 4.9906,2.08615c1.1765,1.39077 1.76475,3.32181 1.76475,5.79311zM101.95132,188.61689c-3.26265,0 -5.87549,-1.07506 -7.83851,-3.22519c-2.02348,-2.31497 -3.07793,-5.32016 -2.94454,-8.39193c-0.08386,-2.5346 0.53754,-5.04272 1.79498,-7.24501c0.34974,-0.57483 0.7536,-1.11492 1.20608,-1.61292c2.10452,-2.24822 5.09135,-3.45704 8.16715,-3.30537c2.90715,-0.11399 5.71657,1.06009 7.67814,3.20876c1.97496,2.27765 3.01534,5.21801 2.91233,8.2309c0.00046,0.05389 0.00068,0.10779 0.00066,0.16169c0.07636,2.42745 -0.47512,4.83352 -1.60109,6.98539c-0.38607,0.69107 -0.8503,1.33547 -1.38354,1.92052c-2.0547,2.21064 -4.97658,3.40736 -7.99166,3.27317zM272.60562,185.82484v2.24652c-0.76245,0.37383 -1.60652,0.55033 -2.45488,0.51332c-1.17344,0.1186 -2.33807,-0.29629 -3.17223,-1.13007c-0.83416,-0.83378 -1.24958,-1.99822 -1.13152,-3.17171c-0.0088,-0.17053 -0.01318,-0.34125 -0.01315,-0.51201v-9.7242h-2.82426v-2.24652h2.82426v-4.01127l2.63168,-0.8505v4.86177h4.1401v2.24652h-4.1401v9.25886c0,1.10201 0.18732,1.88832 0.56196,2.35892c0.47618,0.51306 1.16472,0.77418 1.86137,0.7059c0.61709,0.01478 1.2214,-0.17725 1.71677,-0.54553zM102.1439,167.27557c-2.41741,0 -4.38044,0.87175 -5.88907,2.61525c-1.57362,1.9328 -2.37912,4.37808 -2.2623,6.86774c-0.11066,2.40019 0.62176,4.76348 2.07038,6.68042c0.04466,0.05513 0.09001,0.10968 0.13605,0.16366c1.47095,1.72772 3.38841,2.59159 5.75236,2.59159c2.52476,0 4.51452,-0.82377 5.96926,-2.47131c1.35253,-1.64805 2.10955,-3.70419 2.14859,-5.83583c0.02306,-0.3595 0.03446,-0.71965 0.03418,-1.07988c0.06578,-1.92336 -0.32572,-3.83489 -1.14232,-5.57753c-0.26727,-0.52525 -0.59482,-1.01757 -0.97604,-1.46701c-1.41224,-1.65805 -3.35927,-2.48708 -5.84109,-2.48708zM214.6298,171.80017v16.43157h-2.63168v-16.43157zM119.73093,179.22987v2.2945c-0.02971,1.28188 0.44572,2.52406 1.32373,3.45852c0.86197,0.93802 2.08849,1.45597 3.3619,1.41969c1.47678,0.05747 2.88397,-0.62947 3.74705,-1.82916c0.90396,-1.21944 1.35593,-2.91496 1.35593,-5.08656c0,-1.82938 -0.42262,-3.26287 -1.26786,-4.30047c-0.84524,-1.0376 -1.98997,-1.5564 -3.4342,-1.5564c-1.40823,-0.05289 -2.76482,0.53396 -3.69053,1.59649c-0.94852,1.11355 -1.44646,2.54149 -1.39603,4.00339zM176.08594,179.35803h7.97522l-3.61034,-9.80439c-0.16071,-0.50249 -0.27878,-1.01764 -0.35295,-1.53997h-0.06441c-0.07526,0.52357 -0.19869,1.03908 -0.36872,1.53997zM138.05607,178.44378h8.8737c0.06845,-1.27543 -0.32132,-2.53332 -1.09894,-3.54659c-0.75638,-0.86037 -1.86494,-1.32724 -3.00895,-1.2672c-1.24091,0 -2.29472,0.44387 -3.16143,1.33161c-0.89852,0.95586 -1.46165,2.1781 -1.60438,3.48218zM277.75659,178.44378h8.8737c0.06826,-1.27552 -0.32174,-2.53341 -1.0996,-3.54659c-0.75624,-0.86018 -1.86451,-1.32703 -3.00829,-1.2672c-1.24091,0 -2.29472,0.44387 -3.16143,1.33161c-0.89852,0.95586 -1.46165,2.1781 -1.60438,3.48218zM257.39328,181.55658v-1.63658l-3.96329,0.54553c-0.977,0.08783 -1.921,0.39785 -2.75985,0.90637c-0.67837,0.5619 -1.02821,1.4276 -0.93068,2.30305c-0.02247,0.75054 0.29251,1.47166 0.85838,1.96522c0.57226,0.50828 1.33446,0.76242 2.28662,0.76242c1.22594,0.03394 2.4061,-0.46666 3.23373,-1.37171c0.86268,-0.947 1.32036,-2.19407 1.27509,-3.47429zM212.14272,167.14675c0.31975,0.31633 0.75374,0.49006 1.20345,0.48177c0.46002,0.00871 0.90359,-0.17105 1.22777,-0.49755c0.33696,-0.3317 0.50543,-0.73285 0.50543,-1.20345c0,-0.49207 -0.16848,-0.90133 -0.50543,-1.22777c-0.32654,-0.32195 -0.7693,-0.4983 -1.22777,-0.489c-0.4706,0 -0.87175,0.163 -1.20345,0.489c-0.3317,0.32644 -0.49755,0.7357 -0.49755,1.22777c0,0.49207 0.16585,0.89848 0.49755,1.21922z" fill="#000000" fill-rule="evenodd" stroke="#000000" stroke-width="0.25" stroke-linecap="round"/><path d="M318.7248,138.46484h55.02577c8.34026,0 15.08557,6.74531 15.08557,15.08557v52.89917c0,8.34026 -6.74531,15.08557 -15.08557,15.08557h-55.02577c-8.34026,0 -15.08557,-6.74531 -15.08557,-15.08557v-52.89917c0,-8.34026 6.74531,-15.08557 15.08557,-15.08557z" fill="url(#color-1)" fill-rule="nonzero" stroke="none" stroke-width="1" stroke-linecap="butt"/><g fill-rule="nonzero" stroke="none" stroke-width="0" stroke-linecap="butt"><path d="M366.86856,159.05586l4.61565,-8.50784l9.83162,5.33382l-4.61565,8.50784z" fill="#ff0079"/><path d="M349.80539,190.70159l9.66911,5.24565l-11.18854,8.99229z" fill="#ffeba4"/><path d="M348.8294,199.2854l3.90014,2.11589l-4.51302,3.62714z" fill="#000000"/><path d="M349.67926,190.74023l16.44655,-30.31529l9.83162,5.33382l-16.44655,30.31529z" fill="#ffec40"/><path d="M365.2695,160.64638l3.34236,-6.16085l11.05041,5.99503l-3.34236,6.16085z" fill="#c8c8c8"/></g><path d="M361.99365,199.37733l-0.1338,11l-13.1094,-5.65731z" fill-opacity="0.30784" fill="#000000" fill-rule="nonzero" stroke="none" stroke-width="0" stroke-linecap="butt"/><path d="M361.98332,199.28411l26.85969,0.2253l-0.00027,7.21235c0,0 0.00143,0.86276 -0.10604,1.70244c-0.14187,1.10836 -0.41188,2.26893 -0.51601,2.26607c-6.27101,-0.17194 -26.37272,-0.22129 -26.37272,-0.22129z" fill-opacity="0.30784" fill="#000000" fill-rule="nonzero" stroke="none" stroke-width="0" stroke-linecap="butt"/><path d="M303.64908,204.34015c0,-0.16614 0.16614,-0.16614 0.16614,-0.16614h0.24881c1.24444,0 2.47575,0.20171 3.68741,0.41913c0.37957,0.06811 0.68472,0.3302 1.09058,0.33586c2.02126,0.49919 3.66671,0.63805 5.72839,0.22571c1.64533,-0.32735 4.09428,-0.95452 5.31226,-2.18711c0.82614,-0.55076 1.8527,-0.66472 2.65537,-1.16224c0.6253,-0.38758 1.37969,-0.67263 2.15505,-0.86441c2.21683,-0.05501 4.1691,-0.18785 6.36823,0.25287c1.84305,0.61505 3.24334,2.2254 5.02094,2.83912c1.24252,1.20777 2.82809,2.01577 4.34759,2.79976c0.69599,-0.0043 1.49489,0.38965 2.22035,0.49417c1.05493,0.15199 2.14782,-0.19129 3.15068,-0.15447c0.70938,-0.78901 2.41594,-0.81182 2.38556,-2.25169c0,0 0,-0.16614 0.16614,-0.16614c0.16614,0 0.16614,0.16614 0.16614,0.16614c-0.02442,1.57664 -1.69172,1.72665 -2.59068,2.55868c-1.07642,0.0322 -2.1975,0.33234 -3.31844,0.17728c-0.75622,-0.10461 -1.52787,-0.47965 -2.25826,-0.50108c-1.53643,-0.7476 -3.2419,-1.59632 -4.44377,-2.83998c-1.74838,-0.55941 -3.12889,-2.20055 -4.93154,-2.80062c-2.15283,-0.42959 -4.06739,-0.29863 -6.23825,-0.24476c-1.58718,0.40168 -3.28249,1.04638 -4.64444,1.95435c-1.27976,1.26586 -3.74301,1.91134 -5.45776,2.25597c-2.08978,0.41796 -3.78895,0.297 -5.83835,-0.22229c-0.41424,-0.01471 -0.73839,-0.28341 -1.12213,-0.34172c-1.20332,-0.18283 -2.3793,-0.41024 -3.61107,-0.41024h-0.24881c0,0 -0.16614,0 -0.16614,-0.16614z" fill="#000000" fill-rule="nonzero" stroke="none" stroke-width="0.5" stroke-linecap="butt"/></g></g></svg>